<svg xmlns="http://www.w3.org/2000/svg" xmlns:xlink="http://www.w3.org/1999/xlink" width="100%" height="100%" version="1.1" viewBox="0 0 90 89" xml:space="preserve" style="fill-rule:evenodd;clip-rule:evenodd;stroke-linejoin:round;stroke-miterlimit:2"><g id="All-glyphs"><g><path d="M0.506,26.837L19.748,26.837L19.748,88.738L0.506,88.738L0.506,26.837ZM20.379,9.621C20.379,14.936 16.455,19.241 9.998,19.241C3.924,19.241 0,14.936 0,9.621C0,4.177 4.051,0 10.252,0C16.455,0 20.254,4.177 20.379,9.621" transform="matrix(1,0,0,1,0,0.0003)" style="fill:#7a819a;fill-rule:nonzero"/></g><g><path d="M0,-21.013C0,-28.734 -0.252,-35.189 -0.504,-40.76L16.203,-40.76L17.092,-32.152L17.471,-32.152C20.002,-36.204 26.205,-42.154 36.586,-42.154C49.244,-42.154 58.738,-33.671 58.738,-15.444L58.738,21.141L39.496,21.141L39.496,-13.164C39.496,-21.14 36.711,-26.581 29.748,-26.581C24.432,-26.581 21.27,-22.911 19.877,-19.367C19.369,-18.102 19.242,-16.328 19.242,-14.556L19.242,21.141L0,21.141L0,-21.013Z" transform="matrix(1,0,0,1,31.2617,67.597)" style="fill:#7a819a;fill-rule:nonzero"/></g></g></svg>